<svg preserveAspectRatio="none" width="100%" height="100%" overflow="visible" style="display: block;" viewBox="0 0 16.6 16.6" fill="none" xmlns="http://www.w3.org/2000/svg">
<path id="Icon" d="M10.8 15.8V11.3C10.8 10.8333 10.8 10.5999 10.7092 10.4217C10.6293 10.2649 10.5018 10.1374 10.345 10.0575C10.1667 9.96667 9.93338 9.96667 9.46667 9.96667H7.13333C6.66662 9.96667 6.43327 9.96667 6.25501 10.0575C6.09821 10.1374 5.97072 10.2649 5.89083 10.4217C5.8 10.5999 5.8 10.8333 5.8 11.3V15.8M0.800001 4.13333C0.800001 5.51405 1.91929 6.63333 3.3 6.63333C4.68071 6.63333 5.8 5.51405 5.8 4.13333C5.8 5.51405 6.91929 6.63333 8.3 6.63333C9.68071 6.63333 10.8 5.51405 10.8 4.13333C10.8 5.51405 11.9193 6.63333 13.3 6.63333C14.6807 6.63333 15.8 5.51405 15.8 4.13333M3.46667 15.8H13.1333C14.0668 15.8 14.5335 15.8 14.89 15.6183C15.2036 15.4586 15.4586 15.2036 15.6183 14.89C15.8 14.5335 15.8 14.0668 15.8 13.1333V3.46667C15.8 2.53325 15.8 2.06654 15.6183 1.71002C15.4586 1.39641 15.2036 1.14145 14.89 0.981657C14.5335 0.800001 14.0668 0.800001 13.1333 0.800001H3.46667C2.53325 0.800001 2.06654 0.800001 1.71002 0.981657C1.39641 1.14145 1.14145 1.39641 0.981657 1.71002C0.800001 2.06654 0.800001 2.53325 0.800001 3.46667V13.1333C0.800001 14.0668 0.800001 14.5335 0.981657 14.89C1.14145 15.2036 1.39641 15.4586 1.71002 15.6183C2.06654 15.8 2.53325 15.8 3.46667 15.8Z" stroke="var(--stroke-0, #535862)" stroke-width="1.6" stroke-linecap="round" stroke-linejoin="round"/>
</svg>
