<svg preserveAspectRatio="none" width="100%" height="100%" overflow="visible" style="display: block;" viewBox="0 0 14.75 14.75" fill="none" xmlns="http://www.w3.org/2000/svg">
<path id="Icon" fill-rule="evenodd" clip-rule="evenodd" d="M0.207466 0.207466C0.484087 -0.0691553 0.932579 -0.0691553 1.2092 0.207466L8.33333 7.3316V4.04167C8.33333 3.65046 8.65047 3.33333 9.04167 3.33333C9.43287 3.33333 9.75 3.65046 9.75 4.04167V9.04167C9.75 9.43287 9.43287 9.75 9.04167 9.75H4.04167C3.65046 9.75 3.33333 9.43287 3.33333 9.04167C3.33333 8.65047 3.65046 8.33333 4.04167 8.33333H7.3316L0.207466 1.2092C-0.0691553 0.932579 -0.0691553 0.484087 0.207466 0.207466ZM10 12.375C10 11.0633 11.0633 10 12.375 10C13.6867 10 14.75 11.0633 14.75 12.375C14.75 13.6867 13.6867 14.75 12.375 14.75C11.0633 14.75 10 13.6867 10 12.375ZM12.375 11.4167C11.8457 11.4167 11.4167 11.8457 11.4167 12.375C11.4167 12.9043 11.8457 13.3333 12.375 13.3333C12.9043 13.3333 13.3333 12.9043 13.3333 12.375C13.3333 11.8457 12.9043 11.4167 12.375 11.4167Z" fill="var(--fill-0, #A4A7AE)"/>
</svg>
