<svg preserveAspectRatio="none" width="100%" height="100%" overflow="visible" style="display: block;" viewBox="0 0 11.2 11.2" fill="none" xmlns="http://www.w3.org/2000/svg">
<path id="Icon" d="M3.85 6.93333C3.85 7.57767 4.37233 8.1 5.01667 8.1H6.1C6.79036 8.1 7.35 7.54036 7.35 6.85C7.35 6.15964 6.79036 5.6 6.1 5.6H5.1C4.40964 5.6 3.85 5.04036 3.85 4.35C3.85 3.65964 4.40964 3.1 5.1 3.1H6.18333C6.82767 3.1 7.35 3.62233 7.35 4.26667M5.6 2.35V3.1M5.6 8.1V8.85M10.6 5.6C10.6 8.36142 8.36142 10.6 5.6 10.6C2.83858 10.6 0.6 8.36142 0.6 5.6C0.6 2.83858 2.83858 0.6 5.6 0.6C8.36142 0.6 10.6 2.83858 10.6 5.6Z" stroke="var(--stroke-0, #717680)" stroke-width="1.2" stroke-linecap="round" stroke-linejoin="round"/>
</svg>
