<svg preserveAspectRatio="none" width="100%" height="100%" overflow="visible" style="display: block;" viewBox="0 0 9.7 11.7" fill="none" xmlns="http://www.w3.org/2000/svg">
<path id="Icon" fill-rule="evenodd" clip-rule="evenodd" d="M4.85 0C5.31944 0 5.7 0.380558 5.7 0.85V8.79792L8.24896 6.24896C8.58091 5.91701 9.1191 5.91701 9.45104 6.24896C9.78299 6.5809 9.78299 7.11909 9.45104 7.45104L5.45104 11.451C5.29163 11.6104 5.07543 11.7 4.85 11.7C4.62457 11.7 4.40837 11.6104 4.24896 11.451L0.248959 7.45104C-0.0829865 7.11909 -0.0829863 6.5809 0.248959 6.24896C0.580905 5.91701 1.1191 5.91701 1.45104 6.24896L4 8.79792V0.85C4 0.380558 4.38056 0 4.85 0Z" fill="var(--fill-0, #181D27)"/>
</svg>
