<svg preserveAspectRatio="none" width="100%" height="100%" overflow="visible" style="display: block;" viewBox="0 0 14.75 14.75" fill="none" xmlns="http://www.w3.org/2000/svg">
<path id="Icon" fill-rule="evenodd" clip-rule="evenodd" d="M8.33333 0.708333C8.33333 0.317132 8.65047 0 9.04167 0H14.0417C14.4329 0 14.75 0.317132 14.75 0.708333V5.70833C14.75 6.09954 14.4329 6.41667 14.0417 6.41667C13.6505 6.41667 13.3333 6.09954 13.3333 5.70833V2.4184L6.2092 9.54253C5.93258 9.81916 5.48409 9.81916 5.20747 9.54253C4.93084 9.26591 4.93084 8.81742 5.20747 8.5408L12.3316 1.41667H9.04167C8.65047 1.41667 8.33333 1.09954 8.33333 0.708333ZM2.375 11.4167C1.84573 11.4167 1.41667 11.8457 1.41667 12.375C1.41667 12.9043 1.84573 13.3333 2.375 13.3333C2.90427 13.3333 3.33333 12.9043 3.33333 12.375C3.33333 11.8457 2.90427 11.4167 2.375 11.4167ZM0 12.375C0 11.0633 1.06332 10 2.375 10C3.68668 10 4.75 11.0633 4.75 12.375C4.75 13.6867 3.68668 14.75 2.375 14.75C1.06332 14.75 0 13.6867 0 12.375Z" fill="var(--fill-0, #A4A7AE)"/>
</svg>
