<svg preserveAspectRatio="none" width="100%" height="100%" overflow="visible" style="display: block;" viewBox="0 0 16.235 17.5033" fill="none" xmlns="http://www.w3.org/2000/svg">
<path id="Icon" d="M9.78416 16.6683H6.45083M13.1175 5.835C13.1175 4.50892 12.5907 3.23715 11.653 2.29947C10.7153 1.36178 9.44358 0.835 8.1175 0.835C6.79141 0.835 5.51964 1.36178 4.58196 2.29947C3.64428 3.23715 3.1175 4.50892 3.1175 5.835C3.1175 8.41015 2.46789 10.1733 1.74222 11.3395C1.1301 12.3232 0.824045 12.8151 0.835267 12.9523C0.847693 13.1042 0.87988 13.1622 1.00231 13.253C1.11288 13.335 1.61132 13.335 2.60821 13.335H13.6268C14.6237 13.335 15.1221 13.335 15.2327 13.253C15.3551 13.1622 15.3873 13.1042 15.3997 12.9523C15.4109 12.8151 15.1049 12.3232 14.4928 11.3395C13.7671 10.1733 13.1175 8.41015 13.1175 5.835Z" stroke="var(--stroke-0, #414651)" stroke-width="1.67" stroke-linecap="round" stroke-linejoin="round"/>
</svg>
