<svg preserveAspectRatio="none" width="100%" height="100%" overflow="visible" style="display: block;" viewBox="0 0 16.598 18.3367" fill="none" xmlns="http://www.w3.org/2000/svg">
<g id="Icon">
<path d="M6.12677 15.3109L6.6138 16.4063C6.75859 16.7324 6.99487 17.0094 7.29399 17.2038C7.59312 17.3983 7.94223 17.5017 8.29899 17.5017C8.65575 17.5017 9.00486 17.3983 9.30399 17.2038C9.60311 17.0094 9.83939 16.7324 9.98417 16.4063L10.4712 15.3109C10.6446 14.9223 10.9362 14.5982 11.3045 14.385C11.6752 14.1712 12.104 14.0801 12.5295 14.1248L13.7212 14.2517C14.0759 14.2892 14.4339 14.223 14.7518 14.0611C15.0696 13.8992 15.3337 13.6486 15.512 13.3396C15.6904 13.0308 15.7755 12.6769 15.7567 12.3207C15.738 11.9646 15.6163 11.6215 15.4064 11.3331L14.7008 10.3637C14.4496 10.0159 14.3154 9.59735 14.3175 9.16833C14.3174 8.74049 14.4529 8.32363 14.7045 7.97759L15.4101 7.00815C15.62 6.7198 15.7417 6.37672 15.7604 6.02056C15.7792 5.6644 15.6941 5.31045 15.5157 5.00167C15.3374 4.6927 15.0733 4.44207 14.7555 4.28019C14.4376 4.1183 14.0796 4.05211 13.7249 4.08963L12.5332 4.21648C12.1077 4.26117 11.6789 4.1701 11.3082 3.9563C10.9392 3.74188 10.6475 3.41613 10.4749 3.02574L9.98417 1.93037C9.83939 1.60431 9.60311 1.32726 9.30399 1.13283C9.00486 0.938402 8.65575 0.834942 8.29899 0.835C7.94223 0.834942 7.59312 0.938402 7.29399 1.13283C6.99487 1.32726 6.75859 1.60431 6.6138 1.93037L6.12677 3.02574C5.95421 3.41613 5.66249 3.74188 5.29343 3.9563C4.92278 4.1701 4.49399 4.26117 4.06843 4.21648L2.87306 4.08963C2.51834 4.05211 2.16035 4.1183 1.84249 4.28019C1.52464 4.44207 1.26058 4.6927 1.08232 5.00167C0.90384 5.31045 0.818809 5.6644 0.837545 6.02056C0.856282 6.37672 0.977982 6.7198 1.18788 7.00815L1.89343 7.97759C2.14505 8.32363 2.28055 8.74049 2.28047 9.16833C2.28055 9.59618 2.14505 10.013 1.89343 10.3591L1.18788 11.3285C0.977982 11.6169 0.856282 11.9599 0.837545 12.3161C0.818809 12.6723 0.90384 13.0262 1.08232 13.335C1.26075 13.6438 1.52485 13.8943 1.84265 14.0562C2.16046 14.218 2.51836 14.2843 2.87306 14.247L4.06473 14.1202C4.49029 14.0755 4.91908 14.1666 5.28973 14.3804C5.66017 14.5942 5.95324 14.92 6.12677 15.3109Z" stroke="var(--stroke-0, #414651)" stroke-width="1.67" stroke-linecap="round" stroke-linejoin="round"/>
<path d="M8.2975 11.6683C9.67821 11.6683 10.7975 10.549 10.7975 9.16833C10.7975 7.78762 9.67821 6.66833 8.2975 6.66833C6.91679 6.66833 5.7975 7.78762 5.7975 9.16833C5.7975 10.549 6.91679 11.6683 8.2975 11.6683Z" stroke="var(--stroke-0, #414651)" stroke-width="1.67" stroke-linecap="round" stroke-linejoin="round"/>
</g>
</svg>
