<svg preserveAspectRatio="none" width="100%" height="100%" overflow="visible" style="display: block;" viewBox="0 0 392 114.328" fill="none" xmlns="http://www.w3.org/2000/svg">
<path id="Line" d="M1 1C6.57143 1 6.57143 17.6148 12.1429 17.6148C17.7143 17.6148 17.4821 10.6425 23.2857 10.6425C29.0893 10.6425 28.625 31.1144 34.4286 31.1144C40.2321 31.1144 39.3036 22.896 45.5714 22.896C51.8393 22.896 50.2143 42.8634 56.7143 42.8634C63.2143 42.8634 62.2857 13.4611 67.8571 13.4611C73.4286 13.4611 72.9643 34.9121 79 34.9121C85.0357 34.9121 84.1071 29.0375 90.1429 29.0375C96.1786 29.0375 95.25 43.7239 101.286 43.7239C107.321 43.7239 106.625 50.8445 112.429 50.8445C118.232 50.8445 117.768 34.8231 123.571 34.8231C129.375 34.8231 128.679 51.6752 134.714 51.6752C140.75 51.6752 139.357 41.4986 145.857 41.4986C152.357 41.4986 151.196 30.165 157 30.165C162.804 30.165 162.107 56.0366 168.143 56.0366C174.179 56.0366 173.25 19.0983 179.286 19.0983C185.321 19.0983 184.625 41.1723 190.429 41.1723C196.232 41.1723 195.071 54.3751 201.571 54.3751C208.071 54.3751 206.446 46.3644 212.714 46.3644C218.982 46.3644 217.357 62.6826 223.857 62.6826C230.357 62.6826 228.732 56.3927 235 56.3927C241.268 56.3927 240.107 46.8688 246.143 46.8688C252.179 46.8688 251.25 81.0776 257.286 81.0776C263.321 81.0776 261.929 72.7108 268.429 72.7108C274.929 72.7108 274 85.795 279.571 85.795C285.143 85.795 284.446 76.4491 290.714 76.4491C296.982 76.4491 296.054 103.448 301.857 103.448C307.661 103.448 306.5 95.3188 313 95.3188C319.5 95.3188 317.875 89.4146 324.143 89.4146C330.411 89.4146 329.25 107.513 335.286 107.513C341.321 107.513 339.929 111.311 346.429 111.311C352.929 111.311 351.071 101.312 357.571 101.312C364.071 101.312 363.143 95.9716 368.714 95.9716C374.286 95.9716 374.286 113.328 379.857 113.328C385.429 113.328 384.964 107.216 391 107.216" stroke="var(--stroke-0, #3B7E3F)" stroke-width="2" stroke-linecap="round" stroke-linejoin="round"/>
</svg>
