<svg preserveAspectRatio="none" width="100%" height="100%" overflow="visible" style="display: block;" viewBox="0 0 18.3367 18.3367" fill="none" xmlns="http://www.w3.org/2000/svg">
<path id="Icon" d="M9.16834 4.16833V17.5017M9.16834 4.16833H6.22191C5.78777 4.16833 5.37142 3.99274 5.06444 3.68018C4.75746 3.36762 4.585 2.94369 4.585 2.50167C4.585 2.05964 4.75746 1.63572 5.06444 1.32316C5.37142 1.01059 5.78777 0.835 6.22191 0.835C8.51358 0.835 9.16834 4.16833 9.16834 4.16833ZM9.16834 4.16833H12.1148C12.5489 4.16833 12.9653 3.99274 13.2722 3.68018C13.5792 3.36762 13.7517 2.94369 13.7517 2.50167C13.7517 2.05964 13.5792 1.63572 13.2722 1.32316C12.9653 1.01059 12.5489 0.835 12.1148 0.835C9.8231 0.835 9.16834 4.16833 9.16834 4.16833ZM15.835 8.335V14.835C15.835 15.7684 15.835 16.2351 15.6533 16.5917C15.4936 16.9053 15.2386 17.1602 14.925 17.32C14.5685 17.5017 14.1018 17.5017 13.1683 17.5017L5.16834 17.5017C4.23492 17.5017 3.76821 17.5017 3.41169 17.32C3.09808 17.1602 2.84312 16.9053 2.68333 16.5916C2.50167 16.2351 2.50167 15.7684 2.50167 14.835V8.335M0.835004 5.50167L0.835004 7.00167C0.835004 7.46838 0.835004 7.70173 0.925832 7.87999C1.00573 8.03679 1.13321 8.16428 1.29001 8.24417C1.46827 8.335 1.70163 8.335 2.16834 8.335L16.1683 8.335C16.635 8.335 16.8684 8.335 17.0467 8.24417C17.2035 8.16428 17.3309 8.03679 17.4108 7.87999C17.5017 7.70173 17.5017 7.46838 17.5017 7.00167V5.50167C17.5017 5.03496 17.5017 4.8016 17.4108 4.62334C17.3309 4.46654 17.2035 4.33906 17.0467 4.25916C16.8684 4.16833 16.635 4.16833 16.1683 4.16833L2.16834 4.16833C1.70163 4.16833 1.46827 4.16833 1.29001 4.25916C1.13321 4.33906 1.00573 4.46654 0.925832 4.62334C0.835004 4.8016 0.835004 5.03496 0.835004 5.50167Z" stroke="var(--stroke-0, #414651)" stroke-width="1.67" stroke-linecap="round" stroke-linejoin="round"/>
</svg>
