<svg preserveAspectRatio="none" width="100%" height="100%" overflow="visible" style="display: block;" viewBox="0 0 390 206.141" fill="none" xmlns="http://www.w3.org/2000/svg">
<g id="Line background" opacity="0.1" style="mix-blend-mode:multiply">
<path d="M11.1429 16.6148C5.57143 16.6148 5.57143 0 0 0V206.141H390V106.216C383.964 106.216 384.429 112.328 378.857 112.328C373.286 112.328 373.286 94.9716 367.714 94.9716C362.143 94.9716 363.071 100.312 356.571 100.312C350.071 100.312 351.929 110.311 345.429 110.311C338.929 110.311 340.321 106.513 334.286 106.513C328.25 106.513 329.411 88.4146 323.143 88.4146C316.875 88.4146 318.5 94.3188 312 94.3188C305.5 94.3188 306.661 102.448 300.857 102.448C295.054 102.448 295.982 75.4491 289.714 75.4491C283.446 75.4491 284.143 84.795 278.571 84.795C273 84.795 273.929 71.7108 267.429 71.7108C260.929 71.7108 262.321 80.0776 256.286 80.0776C250.25 80.0776 251.179 45.8688 245.143 45.8688C239.107 45.8688 240.268 55.3927 234 55.3927C227.732 55.3927 229.357 61.6826 222.857 61.6826C216.357 61.6826 217.982 45.3644 211.714 45.3644C205.446 45.3644 207.071 53.3751 200.571 53.3751C194.071 53.3751 195.232 40.1723 189.429 40.1723C183.625 40.1723 184.321 18.0983 178.286 18.0983C172.25 18.0983 173.179 55.0366 167.143 55.0366C161.107 55.0366 161.804 29.165 156 29.165C150.196 29.165 151.357 40.4986 144.857 40.4986C138.357 40.4986 139.75 50.6752 133.714 50.6752C127.679 50.6752 128.375 33.8231 122.571 33.8231C116.768 33.8231 117.232 49.8445 111.429 49.8445C105.625 49.8445 106.321 42.7239 100.286 42.7239C94.25 42.7239 95.1786 28.0375 89.1429 28.0375C83.1071 28.0375 84.0357 33.9121 78 33.9121C71.9643 33.9121 72.4286 12.4611 66.8571 12.4611C61.2857 12.4611 62.2143 41.8634 55.7143 41.8634C49.2143 41.8634 50.8393 21.896 44.5714 21.896C38.3036 21.896 39.2321 30.1144 33.4286 30.1144C27.625 30.1144 28.0893 9.64254 22.2857 9.64254C16.4821 9.64254 16.7143 16.6148 11.1429 16.6148Z" fill="url(#paint0_linear_0_332)"/>
</g>
<defs>
<linearGradient id="paint0_linear_0_332" x1="195" y1="0" x2="195" y2="196.963" gradientUnits="userSpaceOnUse">
<stop stop-color="#2D8C44"/>
<stop offset="1" stop-color="#F2FBF4"/>
</linearGradient>
</defs>
</svg>
